<?xml version="1.0" encoding="UTF-8" standalone="no"?>
<svg
   xmlns:dc="http://purl.org/dc/elements/1.1/"
   xmlns:cc="http://creativecommons.org/ns#"
   xmlns:rdf="http://www.w3.org/1999/02/22-rdf-syntax-ns#"
   xmlns:svg="http://www.w3.org/2000/svg"
   xmlns="http://www.w3.org/2000/svg"
   xmlns:sodipodi="http://sodipodi.sourceforge.net/DTD/sodipodi-0.dtd"
   xmlns:inkscape="http://www.inkscape.org/namespaces/inkscape"
   viewBox="0 0 713.35878 175.8678"
   height="49.633801mm"
   width="201.3257mm"
   id="svg2"
   version="1.1"
   inkscape:version="0.91 r13725"
   sodipodi:docname="logo_full.svg">
  <metadata
     id="metadata12">
    <rdf:RDF>
      <cc:Work
         rdf:about="">
        <dc:format>image/svg+xml</dc:format>
        <dc:type
           rdf:resource="http://purl.org/dc/dcmitype/StillImage" />
      </cc:Work>
    </rdf:RDF>
  </metadata>
  <defs
     id="defs10">
    <filter
       inkscape:collect="always"
       style="color-interpolation-filters:sRGB"
       id="filter4230"
       x="-0.002449312"
       width="1.0048985"
       y="-0.0023526298"
       height="1.0047053">
      <feGaussianBlur
         inkscape:collect="always"
         stdDeviation="0.17294043"
         id="feGaussianBlur4232" />
    </filter>
  </defs>
  <sodipodi:namedview
     pagecolor="#ffffff"
     bordercolor="#666666"
     borderopacity="1"
     objecttolerance="10"
     gridtolerance="10"
     guidetolerance="10"
     inkscape:pageopacity="0"
     inkscape:pageshadow="2"
     inkscape:window-width="1680"
     inkscape:window-height="997"
     id="namedview8"
     showgrid="false"
     inkscape:zoom="3.4428678"
     inkscape:cx="199.9702"
     inkscape:cy="22.164272"
     inkscape:window-x="-8"
     inkscape:window-y="-8"
     inkscape:window-maximized="1"
     inkscape:current-layer="svg2" />
  <g
     transform="matrix(0.40807099,0,0,0.40807099,84.079897,54.027727)"
     id="g4187">
    <circle
       r="97.402596"
       cy="116.00488"
       cx="108.2072"
       id="path4185"
       style="opacity:0.95;fill:#ac9aad;fill-opacity:1;stroke:none;stroke-width:2;stroke-linecap:round;stroke-linejoin:round;stroke-miterlimit:4;stroke-dasharray:none;stroke-dashoffset:0;stroke-opacity:1" />
    <g
       style="stroke:#151515;stroke-width:1.49011111;stroke-miterlimit:4;stroke-dasharray:none;stroke-opacity:1;filter:url(#filter4230)"
       transform="matrix(1.006688,0,0,1.0065847,783.69553,100.22053)"
       id="g5180">
      <path
         style="fill:#67707d;fill-opacity:1;fill-rule:evenodd;stroke:#151515;stroke-width:1.49011111;stroke-linecap:round;stroke-linejoin:round;stroke-miterlimit:4;stroke-dasharray:none;stroke-opacity:1"
         d="m -738.07566,7.1926041 65.96467,-48.1312011 -40.07737,36.433977 z"
         id="path4501"
         inkscape:connector-curvature="0"
         sodipodi:nodetypes="cccc" />
      <path
         style="fill:#3b414a;fill-opacity:1;fill-rule:evenodd;stroke:#151515;stroke-width:1.49011111;stroke-linecap:round;stroke-linejoin:round;stroke-miterlimit:4;stroke-dasharray:none;stroke-opacity:1"
         d="m -738.84746,7.9999999 65.76271,38.1016951 -39.05084,-50.7118646 z"
         id="path4510"
         inkscape:connector-curvature="0"
         sodipodi:nodetypes="cccc" />
      <path
         style="fill:#7c8595;fill-opacity:1;fill-rule:evenodd;stroke:#151515;stroke-width:1.49011111;stroke-linecap:round;stroke-linejoin:round;stroke-miterlimit:4;stroke-dasharray:none;stroke-opacity:1"
         d="m -711.72881,-4.6101696 39.59322,-36.0677964 -0.94916,86.237288 z"
         id="path4512"
         inkscape:connector-curvature="0"
         sodipodi:nodetypes="cccc" />
      <path
         style="fill:#616875;fill-opacity:1;fill-rule:evenodd;stroke:#151515;stroke-width:1.49011111;stroke-linecap:round;stroke-linejoin:round;stroke-miterlimit:4;stroke-dasharray:none;stroke-opacity:1"
         d="m -738.84746,7.0508473 10.19276,-58.3516133 55.70555,10.21602 z"
         id="path4514"
         inkscape:connector-curvature="0"
         sodipodi:nodetypes="cccc" />
      <path
         style="fill:#6a7382;fill-opacity:1;fill-rule:evenodd;stroke:#151515;stroke-width:1.49011111;stroke-linecap:round;stroke-linejoin:round;stroke-miterlimit:4;stroke-dasharray:none;stroke-opacity:1"
         d="m -739.52542,6.9152541 -13.01695,-21.4237291 19.30076,-11.723996 z"
         id="path4516"
         inkscape:connector-curvature="0"
         sodipodi:nodetypes="cccc" />
      <path
         style="fill:#383e46;fill-opacity:1;fill-rule:evenodd;stroke:#151515;stroke-width:1.49011111;stroke-linecap:round;stroke-linejoin:round;stroke-miterlimit:4;stroke-dasharray:none;stroke-opacity:1"
         d="M -739.25424,6.9152541 -755.79661,48 l 23.05085,14.644068 z"
         id="path4518"
         inkscape:connector-curvature="0"
         sodipodi:nodetypes="cccc" />
      <path
         style="fill:#68717e;fill-opacity:1;fill-rule:evenodd;stroke:#151515;stroke-width:1.49011111;stroke-linecap:round;stroke-linejoin:round;stroke-miterlimit:4;stroke-dasharray:none;stroke-opacity:1"
         d="m -738.84746,6.9152541 6.37288,55.4576269 58.44068,-16.949152 z"
         id="path4520"
         inkscape:connector-curvature="0"
         sodipodi:nodetypes="cccc" />
      <path
         style="fill:#545d68;fill-opacity:1;fill-rule:evenodd;stroke:#151515;stroke-width:1.49011111;stroke-linecap:round;stroke-linejoin:round;stroke-miterlimit:4;stroke-dasharray:none;stroke-opacity:1"
         d="m -702.21696,-46.883087 31.73591,-27.708999 -1.43818,33.653489 z"
         id="path4522"
         inkscape:connector-curvature="0"
         sodipodi:nodetypes="cccc" />
      <path
         style="fill:#7a8494;fill-opacity:1;fill-rule:evenodd;stroke:#151515;stroke-width:1.49011111;stroke-linecap:round;stroke-linejoin:round;stroke-miterlimit:4;stroke-dasharray:none;stroke-opacity:1"
         d="m -671.91923,-40.938597 57.14382,-9.39613 9.9714,58.4861199 z"
         id="path4524"
         inkscape:connector-curvature="0"
         sodipodi:nodetypes="cccc" />
      <path
         style="fill:#8d98ac;fill-opacity:1;fill-rule:evenodd;stroke:#151515;stroke-width:1.49011111;stroke-linecap:round;stroke-linejoin:round;stroke-miterlimit:4;stroke-dasharray:none;stroke-opacity:1"
         d="m -670.19341,-74.496207 30.37978,28.18755 -31.91384,5.37006 z"
         id="path4526"
         inkscape:connector-curvature="0"
         sodipodi:nodetypes="cccc" />
      <path
         style="fill:#8d98aa;fill-opacity:1;fill-rule:evenodd;stroke:#151515;stroke-width:1.49011111;stroke-linecap:round;stroke-linejoin:round;stroke-miterlimit:4;stroke-dasharray:none;stroke-opacity:1"
         d="m -610.7485,-27.036158 22.43566,13.902438 -16.10766,21.8603862 z"
         id="path4528"
         inkscape:connector-curvature="0"
         sodipodi:nodetypes="cccc" />
      <path
         style="fill:#5b626f;fill-opacity:1;fill-rule:evenodd;stroke:#151515;stroke-width:1.49011111;stroke-linecap:round;stroke-linejoin:round;stroke-miterlimit:4;stroke-dasharray:none;stroke-opacity:1"
         d="m -671.45763,-40 38.1017,35.6610168 -39.59322,49.7627122 z"
         id="path4530"
         inkscape:connector-curvature="0"
         sodipodi:nodetypes="cccc" />
      <path
         style="fill:#646a7a;fill-opacity:1;fill-rule:evenodd;stroke:#151515;stroke-width:1.49011111;stroke-linecap:round;stroke-linejoin:round;stroke-miterlimit:4;stroke-dasharray:none;stroke-opacity:1"
         d="m -633.35593,-4.4745764 28.88135,12.6101695 -68.20339,38.2372879 z"
         id="path4532"
         inkscape:connector-curvature="0"
         sodipodi:nodetypes="cccc" />
      <path
         style="fill:#778292;fill-opacity:1;fill-rule:evenodd;stroke:#151515;stroke-width:1.49011111;stroke-linecap:round;stroke-linejoin:round;stroke-miterlimit:4;stroke-dasharray:none;stroke-opacity:1"
         d="m -672,45.966102 59.1419,16.317714 8.24793,-54.4194093 z"
         id="path4534"
         inkscape:connector-curvature="0"
         sodipodi:nodetypes="cccc" />
      <path
         style="fill:#4c535f;fill-opacity:1;fill-rule:evenodd;stroke:#151515;stroke-width:1.49011111;stroke-linecap:round;stroke-linejoin:round;stroke-miterlimit:4;stroke-dasharray:none;stroke-opacity:1"
         d="M -612.50465,62.604354 -633.22034,79.050847 -672,45.830508 Z"
         id="path4536"
         inkscape:connector-curvature="0"
         sodipodi:nodetypes="cccc" />
      <path
         style="fill:#6c7585;fill-opacity:1;fill-rule:evenodd;stroke:#151515;stroke-width:1.49011111;stroke-linecap:round;stroke-linejoin:round;stroke-miterlimit:4;stroke-dasharray:none;stroke-opacity:1"
         d="m -632.47939,78.515289 46.14141,-29.2785 -17.96129,-40.7176804 -8.07944,54.0126304 z"
         id="path4538"
         inkscape:connector-curvature="0"
         sodipodi:nodetypes="ccccc" />
      <path
         style="fill:#464d58;fill-opacity:1;fill-rule:evenodd;stroke:#151515;stroke-width:1.49011111;stroke-linecap:round;stroke-linejoin:round;stroke-miterlimit:4;stroke-dasharray:none;stroke-opacity:1"
         d="m -732.47458,62.779661 21.55933,15.864407 37.28813,-32.677966 z"
         id="path4540"
         inkscape:connector-curvature="0"
         sodipodi:nodetypes="cccc" />
      <path
         style="fill:#3a3f47;fill-opacity:1;fill-rule:evenodd;stroke:#151515;stroke-width:1.49011111;stroke-linecap:round;stroke-linejoin:round;stroke-miterlimit:4;stroke-dasharray:none;stroke-opacity:1"
         d="m -710.64407,79.050847 38.77966,22.644073 -0.94915,-56.406784 z"
         id="path4542"
         inkscape:connector-curvature="0"
         sodipodi:nodetypes="cccc" />
      <path
         style="fill:#757e8d;fill-opacity:1;fill-rule:evenodd;stroke:#151515;stroke-width:1.49011111;stroke-linecap:round;stroke-linejoin:round;stroke-miterlimit:4;stroke-dasharray:none;stroke-opacity:1"
         d="m -671.80142,100.68279 38.44549,-21.631943 -38.91526,-33.355932 z"
         id="path4544"
         inkscape:connector-curvature="0"
         sodipodi:nodetypes="cccc" />
      <path
         style="fill:#96a2b5;fill-opacity:1;fill-rule:evenodd;stroke:#151515;stroke-width:1.49011111;stroke-linecap:round;stroke-linejoin:round;stroke-miterlimit:4;stroke-dasharray:none;stroke-opacity:1"
         d="m -672.40678,-41.084746 67.52542,49.0847459 -28.74576,-12.6101695 z"
         id="path4546"
         inkscape:connector-curvature="0"
         sodipodi:nodetypes="cccc" />
      <path
         style="fill:none;fill-rule:evenodd;stroke:#151515;stroke-width:1.49011111;stroke-linecap:round;stroke-linejoin:round;stroke-miterlimit:4;stroke-dasharray:none;stroke-opacity:1"
         d="m -671.63293,101.83051 37.87022,-22.779663"
         id="path4548"
         inkscape:connector-curvature="0"
         sodipodi:nodetypes="cc" />
    </g>
  </g>
  <g
     style="font-style:normal;font-weight:normal;font-size:55.43741608px;line-height:300.99999905%;font-family:sans-serif;letter-spacing:0px;word-spacing:0px;fill:#ffffff;fill-opacity:1;stroke:#ffffff;stroke-width:3.61698151;stroke-linecap:butt;stroke-linejoin:miter;stroke-miterlimit:4;stroke-dasharray:none;stroke-opacity:1"
     id="text4140"
     transform="matrix(1.1040993,0,0,1.1076927,-73.580469,23.191909)">
    <path
       d="m 75.484509,20.111093 q 0,-5.907821 5.603294,-5.907821 2.009877,0 3.715227,1.400823 1.522634,1.522635 1.522634,4.506998 l 0,78.446112 q 0,3.349795 -1.644444,4.872425 -1.705351,1.21811 -3.593417,1.21811 -5.603294,0 -5.603294,-5.846913 l 0,-78.689734 z"
       style="font-style:normal;font-variant:normal;font-weight:normal;font-stretch:normal;font-size:124.73419189px;font-family:UnDinaru;-inkscape-font-specification:UnDinaru;fill:#ffffff;fill-opacity:1;stroke:#ffffff;stroke-width:3.61698151;stroke-miterlimit:4;stroke-dasharray:none;stroke-opacity:1"
       id="path4163"
       inkscape:connector-curvature="0" />
    <path
       d="m 145.09934,42.767889 q 0.48725,1.157202 0.48725,2.375309 0,3.897944 -4.87243,4.628808 l -3.71523,-1.218107 -5.11605,-1.644445 q -0.24362,-0.121811 -0.91358,-0.121811 -0.60906,0 -0.97449,-0.12181 -1.21811,-0.243622 -2.2535,-0.243622 -11.81564,0 -16.44445,12.120168 -2.49712,6.455969 -2.49712,11.328399 0,9.866669 3.71523,16.322638 4.26338,7.856792 13.33828,9.013994 1.1572,0 1.88806,0.243622 l 2.98437,-0.365432 2.49712,-0.79177 2.61893,-0.974486 2.37531,-1.157202 q 1.52263,-0.730865 2.74074,-0.730865 1.76625,0 2.98436,1.279013 1.1572,1.279013 1.1572,3.349795 0,4.689715 -5.60329,6.760495 -5.35967,1.82716 -11.75474,1.82716 -18.08889,0 -26.06749,-16.200826 -3.837042,-7.734981 -3.837042,-16.200827 0,-6.395064 1.70535,-13.094654 3.776132,-14.251856 14.739102,-19.611528 5.7251,-2.862553 12.97284,-2.862553 13.94733,0 17.84527,6.090537 z"
       style="font-style:normal;font-variant:normal;font-weight:normal;font-stretch:normal;font-size:124.73419189px;font-family:UnDinaru;-inkscape-font-specification:UnDinaru;fill:#ffffff;fill-opacity:1;stroke:#ffffff;stroke-width:3.61698151;stroke-miterlimit:4;stroke-dasharray:none;stroke-opacity:1"
       id="path4165"
       inkscape:connector-curvature="0" />
    <path
       d="m 224.97573,97.278193 q -2.61893,-2.192593 -2.98437,-5.359673 0,-1.827161 1.40083,-3.471606 1.33991,-1.339918 3.34979,-1.339918 1.88807,0 3.10618,0.852676 1.52263,0.609053 4.01975,2.61893 l 3.34979,2.131688 q 0.97449,0.609054 4.38519,1.70535 2.43622,0.79177 4.87243,0.79177 5.35967,0 8.95309,-2.009877 4.62881,-2.375309 4.62881,-7.125928 0,-4.20247 -5.11605,-7.49136 -3.89795,-2.253499 -9.62305,-4.446092 l -5.96873,-2.49712 -4.62881,-2.131688 q -3.95884,-2.070782 -6.76049,-5.603293 -2.98436,-3.654322 -2.98436,-8.770373 0,-10.232102 10.35391,-15.713585 4.99424,-2.740742 11.3893,-2.740742 5.6033,0 11.93745,2.131688 6.39507,2.37531 8.34404,4.506997 2.49712,2.49712 2.49712,5.116051 0,1.461729 -1.33992,3.227985 -1.64444,1.339918 -3.4716,1.644445 -2.49712,-0.79177 -6.27326,-2.923458 l -5.84691,-3.227984 q -1.27902,-0.487243 -2.13169,-0.609054 -1.27901,-0.365432 -2.61893,-0.365432 -4.62881,0 -7.9786,1.827161 -4.14157,2.009877 -4.14157,6.516874 0.66996,2.984363 2.86255,5.237862 l 1.88807,1.522634 q 1.33992,0.91358 3.4107,1.827161 0.91358,0.609053 4.44609,1.888066 0.36543,0.121811 3.10618,1.096297 l 6.02963,2.253498 q 13.82552,5.237862 13.82552,16.870787 0,5.116051 -3.22799,9.86667 -3.10617,4.446091 -7.85679,6.8214 -5.35967,2.74074 -13.46009,2.74074 -12.4856,0 -21.74321,-7.369547 z"
       style="font-style:normal;font-variant:normal;font-weight:normal;font-stretch:normal;font-size:124.73419189px;font-family:UnDinaru;-inkscape-font-specification:UnDinaru;fill:#ffffff;fill-opacity:1;stroke:#ffffff;stroke-width:3.61698151;stroke-miterlimit:4;stroke-dasharray:none;stroke-opacity:1"
       id="path4169"
       inkscape:connector-curvature="0" />
    <path
       d="m 289.77903,70.723453 q 0,14.495477 7.9786,20.951446 4.26338,3.532511 9.62305,3.532511 9.98848,0 14.55638,-7.613171 4.14157,-6.577779 4.14157,-16.870786 0,-15.469964 -8.58766,-21.5605 -4.14157,-2.984363 -9.37943,-2.984363 -8.95309,0 -13.58189,7.125928 -2.13169,3.106173 -3.53252,7.674076 -1.2181,4.506997 -1.2181,9.744859 z m 36.54322,-28.686428 q 0.24362,-2.740742 1.64444,-3.958849 1.33992,-1.400824 3.47161,-1.400824 2.13169,0 3.71522,1.400824 1.40083,1.339918 1.40083,4.20247 l 0,56.763802 q 0,5.603292 -5.11605,5.603292 -2.13169,0 -3.65432,-1.46173 -1.46173,-1.52263 -1.46173,-3.654319 l 0,-4.872429 q -7.49136,9.988478 -17.60165,9.988478 -13.82552,0 -22.16956,-10.2321 -7.73498,-9.562142 -7.73498,-23.448566 0,-21.682311 15.22634,-30.513589 6.57778,-3.776133 13.33828,-3.776133 11.20659,0 18.69795,9.013995 l 0.24362,-3.654322 z"
       style="font-style:normal;font-variant:normal;font-weight:normal;font-stretch:normal;font-size:124.73419189px;font-family:UnDinaru;-inkscape-font-specification:UnDinaru;fill:#ffffff;fill-opacity:1;stroke:#ffffff;stroke-width:3.61698151;stroke-miterlimit:4;stroke-dasharray:none;stroke-opacity:1"
       id="path4171"
       inkscape:connector-curvature="0" />
    <path
       d="m 351.23255,13.228786 q 0,-5.7251044 5.35967,-5.7251044 2.49712,0 3.95885,1.4617288 1.52264,1.4008236 1.52264,4.2633756 l 0.24362,32.158034 q 6.76049,-8.709468 17.84527,-8.709468 13.94733,0 20.58602,12.241979 2.98436,5.603294 2.98436,12.36379 l 0,37.761327 q 0,2.375312 -1.52264,4.019752 -1.46172,1.58354 -3.95884,1.58354 -2.00988,0 -3.59342,-1.46173 -1.76626,-1.52263 -1.76626,-4.141562 l 0,-36.299598 q 0,-7.125928 -4.01975,-11.815642 -4.08066,-4.750618 -11.20659,-4.750618 -8.95309,0 -13.33827,7.369549 -2.2535,3.715228 -2.2535,8.953089 l 0,36.54322 q 0,5.603292 -5.48149,5.603292 -2.00987,0 -3.59341,-1.46173 -1.76626,-1.52263 -1.76626,-4.141562 l 0,-85.815662 z"
       style="font-style:normal;font-variant:normal;font-weight:normal;font-stretch:normal;font-size:124.73419189px;font-family:UnDinaru;-inkscape-font-specification:UnDinaru;fill:#ffffff;fill-opacity:1;stroke:#ffffff;stroke-width:3.61698151;stroke-miterlimit:4;stroke-dasharray:none;stroke-opacity:1"
       id="path4173"
       inkscape:connector-curvature="0" />
    <path
       d="m 427.85151,41.549782 q 6.94321,-4.87243 15.16544,-4.87243 17.47984,0 25.45844,16.992598 3.77613,7.856792 3.77613,15.957206 0,5.359672 -6.15144,5.359672 l -41.41565,0 q 0,12.729222 10.11029,17.845273 4.62881,2.375309 10.11029,2.375309 9.74486,0 17.84528,-6.882306 2.37531,-2.009877 4.14156,-2.009877 3.83704,0 3.83704,4.628808 0,2.253498 -1.58354,4.019754 -3.89794,4.324281 -11.51111,7.186831 -6.88231,2.49712 -13.33828,2.49712 -15.16544,0 -23.57038,-11.206585 -3.89794,-5.237862 -5.48148,-11.084777 -1.76626,-6.273253 -1.76626,-11.632925 l 0.12181,-0.487243 q 0.12182,-8.222225 4.01976,-16.200828 3.71523,-7.978603 10.2321,-12.4856 z m -3.16708,25.093011 36.54322,0 q 0,-8.892184 -4.68971,-14.739099 -4.62881,-5.725104 -13.03375,-5.725104 -8.34404,0 -13.27737,5.359672 -5.54239,5.846915 -5.54239,15.104531 z"
       style="font-style:normal;font-variant:normal;font-weight:normal;font-stretch:normal;font-size:124.73419189px;font-family:UnDinaru;-inkscape-font-specification:UnDinaru;fill:#ffffff;fill-opacity:1;stroke:#ffffff;stroke-width:3.61698151;stroke-miterlimit:4;stroke-dasharray:none;stroke-opacity:1"
       id="path4175"
       inkscape:connector-curvature="0" />
    <path
       d="m 490.76676,70.479831 q 0,9.744859 3.83704,16.322639 4.6288,8.40494 13.52099,8.40494 13.09465,0 17.29712,-12.851032 2.00988,-5.237862 2.00988,-11.632925 0,-7.734982 -2.37531,-12.972844 -2.37531,-5.359672 -6.45597,-8.465846 -4.26337,-3.106173 -9.50124,-3.106173 -6.09053,0 -10.11029,3.471606 -4.14156,3.471606 -6.09053,9.379426 -2.13169,6.090537 -2.13169,11.450209 z m 35.26421,-57.494666 q 0.30452,-5.4814834 5.42057,-5.4814834 5.6033,0 5.6033,5.7251044 l 0,85.815662 q 0,5.603292 -5.6033,5.603292 -2.00987,0 -3.65432,-1.58354 -1.76625,-1.76625 -1.76625,-3.897941 l 0,-3.471606 q -5.23787,8.953087 -16.80989,8.953087 -17.96708,0 -25.70206,-16.322636 -3.71523,-8.100414 -3.71523,-17.35803 0,-14.19095 7.85679,-24.179431 4.08066,-4.99424 8.83128,-7.49136 5.11605,-2.618931 11.3284,-2.618931 11.26749,0 17.96708,9.013995 l 0.24363,-32.706182 z"
       style="font-style:normal;font-variant:normal;font-weight:normal;font-stretch:normal;font-size:124.73419189px;font-family:UnDinaru;-inkscape-font-specification:UnDinaru;fill:#ffffff;fill-opacity:1;stroke:#ffffff;stroke-width:3.61698151;stroke-miterlimit:4;stroke-dasharray:none;stroke-opacity:1"
       id="path4177"
       inkscape:connector-curvature="0" />
    <path
       d="m 552.22028,42.524268 q 0,-2.49712 1.58354,-4.08066 1.70535,-1.522634 3.77614,-1.522634 2.37531,0 3.83703,1.522634 1.64445,1.218107 1.64445,4.08066 l 0,5.664199 q 3.34979,-5.116051 6.63868,-7.856793 4.20247,-3.654322 8.34404,-3.654322 2.61893,0 4.44609,1.522635 1.76626,1.70535 1.76626,4.080659 0,2.984363 -2.49712,4.506997 -0.97449,0.852676 -5.11605,2.009877 -3.22799,0.609054 -4.75062,1.461729 -8.83128,5.116051 -8.83128,16.627166 l 0,32.158033 q 0,5.603292 -5.23786,5.603292 -2.2535,0 -3.83704,-1.58354 -1.76626,-1.52263 -1.76626,-4.263373 l 0,-56.276559 z"
       style="font-style:normal;font-variant:normal;font-weight:normal;font-stretch:normal;font-size:124.73419189px;font-family:UnDinaru;-inkscape-font-specification:UnDinaru;fill:#ffffff;fill-opacity:1;stroke:#ffffff;stroke-width:3.61698151;stroke-miterlimit:4;stroke-dasharray:none;stroke-opacity:1"
       id="path4179"
       inkscape:connector-curvature="0" />
    <path
       d="m 599.17832,70.723453 q 0,9.013994 4.44609,16.748976 4.507,7.734981 13.6428,7.734981 5.96873,0 10.2321,-3.28889 3.83704,-3.106173 6.09054,-8.831278 2.13169,-5.968726 2.13169,-12.363789 0,-6.212348 -2.13169,-12.36379 -2.13169,-5.603294 -5.96873,-8.709467 -4.26337,-3.471606 -10.11029,-3.471606 -5.96872,0 -9.86667,2.984363 -3.95884,3.106173 -6.21234,9.013994 -2.2535,5.846915 -2.2535,12.546506 z m -10.96297,0 q 0,-9.562143 3.71523,-17.418935 3.77613,-8.039509 10.47572,-12.241979 7.00412,-4.385187 15.10453,-4.385187 8.58766,0 15.46997,4.628808 6.76049,4.628808 10.2321,12.485601 3.4716,7.49136 3.4716,16.931692 0,19.733339 -13.58189,29.173671 -6.88231,4.750616 -15.59178,4.750616 -13.46008,0 -21.80412,-10.597532 -7.49136,-9.562142 -7.49136,-23.326755 z"
       style="font-style:normal;font-variant:normal;font-weight:normal;font-stretch:normal;font-size:124.73419189px;font-family:UnDinaru;-inkscape-font-specification:UnDinaru;fill:#ffffff;fill-opacity:1;stroke:#ffffff;stroke-width:3.61698151;stroke-miterlimit:4;stroke-dasharray:none;stroke-opacity:1"
       id="path4181"
       inkscape:connector-curvature="0" />
    <path
       d="m 657.95197,42.524268 q 0,-2.740742 1.58354,-4.202471 1.52264,-1.644445 3.77614,-1.644445 2.37531,0 3.95884,1.400824 1.52264,1.461729 1.52264,4.446092 l 0,2.61893 0.24362,0.243622 q 3.10617,-4.20247 7.85679,-6.455969 4.62881,-2.253499 10.2321,-2.253499 14.00824,0 20.22059,11.206588 3.10617,5.542388 3.10617,14.130045 l 0,37.030463 q 0,2.253502 -1.64444,3.897942 -1.46173,1.46173 -3.83704,1.46173 -2.00988,0 -3.59342,-1.46173 -1.76626,-1.40082 -1.76626,-3.897942 l 0,-36.786841 q 0,-7.36955 -4.6288,-11.57202 -4.38519,-4.263376 -10.71935,-4.263376 -4.14156,0 -7.49136,1.58354 -3.22798,1.644445 -5.7251,5.664199 -2.2535,3.837038 -2.2535,8.831278 l 0,36.54322 q 0,5.846912 -5.23786,5.846912 -2.2535,0 -3.83704,-1.58354 -1.76626,-1.76625 -1.76626,-4.263372 l 0,-56.52018 z"
       style="font-style:normal;font-variant:normal;font-weight:normal;font-stretch:normal;font-size:124.73419189px;font-family:UnDinaru;-inkscape-font-specification:UnDinaru;fill:#ffffff;fill-opacity:1;stroke:#ffffff;stroke-width:3.61698151;stroke-miterlimit:4;stroke-dasharray:none;stroke-opacity:1"
       id="path4183"
       inkscape:connector-curvature="0" />
  </g>
</svg>
